<?xml version="1.0" standalone="no"?>
<!DOCTYPE svg PUBLIC "-//W3C//DTD SVG 20010904//EN"
 "http://www.w3.org/TR/2001/REC-SVG-20010904/DTD/svg10.dtd">
<svg version="1.0" xmlns="http://www.w3.org/2000/svg"
 width="512.000000pt" height="512.000000pt" viewBox="0 0 512.000000 512.000000"
 preserveAspectRatio="xMidYMid meet">

<g transform="translate(0.000000,512.000000) scale(0.100000,-0.100000)"
fill="#000000" stroke="none">
<path d="M1322 5105 c-89 -20 -200 -77 -270 -141 -115 -104 -176 -229 -196
-404 l-12 -107 -58 -64 c-318 -352 -526 -890 -526 -1363 l0 -123 -39 -6 c-88
-11 -158 -66 -199 -156 -54 -118 -2 -254 125 -325 l37 -21 126 -697 c70 -383
133 -718 140 -745 39 -144 171 -309 300 -372 127 -61 143 -64 523 -68 l347 -5
0 46 0 46 84 0 84 0 4 -202 c3 -167 7 -210 21 -243 26 -59 83 -112 144 -135
53 -20 80 -20 1364 -20 889 0 1324 3 1352 11 65 16 130 69 161 130 l26 53 0
417 0 418 65 32 c76 37 127 89 164 168 37 79 37 191 -1 272 -50 109 -137 177
-252 198 -33 6 -149 11 -258 11 -109 0 -198 1 -198 3 0 8 31 161 33 163 1 2
20 -1 42 -6 22 -5 40 -8 41 -7 2 1 24 123 51 270 l48 268 42 20 c122 59 175
219 113 339 -37 70 -136 139 -202 140 l-28 0 0 113 c0 294 -75 613 -209 892
l-57 120 68 148 c81 177 94 215 109 309 21 133 -18 280 -105 403 -102 141
-252 221 -436 232 -182 10 -322 -41 -449 -164 l-75 -72 -40 21 c-89 45 -268
111 -391 143 -199 53 -329 68 -560 68 -214 0 -312 -12 -507 -60 -101 -24 -109
-25 -132 -9 -37 24 -122 53 -190 65 -77 14 -146 13 -224 -4z m2650 -177 c51
-11 149 -69 184 -109 37 -42 72 -104 88 -159 32 -109 16 -209 -62 -375 l-38
-79 -48 62 c-36 47 -45 66 -37 76 15 18 -35 180 -54 173 -7 -3 -31 -11 -53
-18 l-41 -12 -73 67 c-65 60 -221 183 -288 227 l-25 17 42 39 c104 96 241 127
405 91z m-1312 -344 c131 -22 272 -66 389 -120 l98 -46 -80 -174 c-45 -96 -83
-174 -86 -173 -3 0 -32 34 -63 74 -187 242 -458 342 -703 260 -44 -14 -97 -37
-117 -51 -21 -13 -40 -24 -42 -24 -3 0 -6 54 -8 119 l-3 120 65 12 c173 31
375 32 550 3z m709 -313 c130 -97 357 -347 329 -361 -7 -4 -92 -31 -188 -60
-96 -28 -179 -56 -184 -61 -8 -7 26 -146 40 -167 1 -2 97 26 213 62 115 36
216 66 224 66 7 0 27 -30 43 -67 l30 -68 -160 -352 -160 -353 -113 0 c-130 0
-117 -12 -128 122 l-6 77 73 22 c40 12 76 24 79 28 6 5 -35 158 -44 167 -1 2
-31 -6 -66 -17 -35 -10 -65 -18 -66 -17 -1 2 -17 64 -34 139 -28 116 -87 288
-143 419 l-15 35 101 218 c55 119 102 217 104 217 3 0 34 -22 71 -49z m-843
-36 c316 -119 556 -611 620 -1267 l6 -68 -762 0 -762 0 7 88 c23 290 111 618
225 841 74 145 201 298 303 363 112 72 244 88 363 43z m-1590 -651 c-5 -12
-56 -21 -56 -10 0 3 12 33 28 68 l27 63 3 -54 c2 -29 1 -60 -2 -67z m242 -206
c106 -40 211 -151 245 -262 9 -28 19 -86 23 -128 l7 -78 -427 0 -426 0 0 43
c0 70 18 155 44 213 50 110 176 209 296 234 62 12 173 2 238 -22z m3396 -677
c35 -33 35 -79 0 -112 l-26 -24 -2158 0 -2158 0 -26 24 c-47 44 -25 118 39
134 11 3 984 4 2162 3 l2141 -1 26 -24z m-703 -338 c-5 -10 -47 -63 -93 -118
l-84 -100 -142 -3 -142 -3 0 -89 0 -90 52 0 51 0 -24 -26 c-13 -15 -73 -71
-133 -125 l-109 -99 -731 -2 c-723 -3 -732 -3 -777 -24 -95 -44 -168 -131
-194 -231 -20 -77 -19 -118 6 -199 18 -57 31 -77 82 -129 40 -39 79 -68 110
-80 l47 -18 0 -93 0 -93 -182 -73 -183 -73 -245 0 c-238 0 -247 1 -309 25
-114 45 -220 162 -251 278 -12 46 -250 1348 -250 1369 0 10 351 13 1755 13
1669 0 1755 -1 1746 -17z m-597 -833 c45 -10 81 -34 110 -74 30 -39 30 -143 0
-183 -31 -42 -77 -69 -130 -77 -28 -3 -57 -15 -71 -28 l-23 -21 0 -442 c0
-298 -4 -452 -11 -474 -22 -62 -15 -61 -588 -61 -320 0 -530 4 -546 10 -53 20
-55 40 -55 518 0 428 -1 440 -21 465 -15 20 -33 28 -70 33 -55 7 -101 34 -133
77 -30 40 -30 144 0 183 28 39 66 65 105 74 48 11 1385 12 1433 0z m1587 -22
c45 -25 69 -57 80 -107 9 -42 -5 -107 -30 -138 -24 -29 -81 -63 -107 -63 -12
0 -35 -5 -53 -11 -61 -21 -61 -22 -61 -513 l0 -445 -24 -28 -24 -28 -662 -3
-663 -3 7 32 c3 17 6 211 6 430 l0 398 55 26 c103 49 177 147 195 259 9 59 -2
141 -25 185 l-16 31 642 0 c641 0 641 0 680 -22z"/>
<path d="M2455 3757 c-132 -45 -267 -98 -300 -117 -162 -93 -275 -280 -275
-457 0 -69 17 -97 64 -109 30 -7 450 129 565 183 173 82 300 278 304 470 2 59
0 67 -26 89 -18 15 -40 24 -60 23 -18 0 -140 -37 -272 -82z m155 -150 c0 -26
-76 -122 -125 -159 -38 -29 -93 -52 -227 -97 -98 -33 -178 -57 -178 -55 0 13
42 85 66 113 49 58 116 95 284 153 91 31 168 57 173 57 4 1 7 -5 7 -12z"/>
<path d="M767 3243 c-4 -3 -7 -44 -7 -90 l0 -83 90 0 90 0 0 90 0 90 -83 0
c-46 0 -87 -3 -90 -7z"/>
<path d="M1104 3147 c-3 -8 -4 -47 -2 -88 l3 -74 88 -3 87 -3 0 91 0 90 -85 0
c-63 0 -87 -4 -91 -13z"/>
<path d="M850 2050 l0 -90 260 0 260 0 0 90 0 90 -260 0 -260 0 0 -90z"/>
<path d="M1700 2050 l0 -90 260 0 260 0 0 90 0 90 -260 0 -260 0 0 -90z"/>
<path d="M2550 2050 l0 -90 265 0 265 0 0 90 0 90 -265 0 -265 0 0 -90z"/>
<path d="M850 1540 l0 -90 260 0 260 0 0 90 0 90 -260 0 -260 0 0 -90z"/>
<path d="M850 1020 l0 -90 260 0 260 0 0 90 0 90 -260 0 -260 0 0 -90z"/>
<path d="M4262 1283 l3 -88 88 -3 87 -3 0 91 0 90 -90 0 -91 0 3 -87z"/>
<path d="M3840 1025 l0 -85 85 0 85 0 0 85 0 85 -85 0 -85 0 0 -85z"/>
<path d="M4350 600 l0 -91 88 3 87 3 0 85 0 85 -87 3 -88 3 0 -91z"/>
<path d="M3500 430 l0 -90 85 0 85 0 0 90 0 90 -85 0 -85 0 0 -90z"/>
</g>
</svg>
